<svg width="57" height="57" viewBox="0 0 57 57" fill="none" xmlns="http://www.w3.org/2000/svg">
<g id="credit-card 1" clip-path="url(#clip0_202_516)">
<g id="Group">
<path id="Vector" d="M50.1973 9.38428H6.44727C3.06998 9.38428 0.322266 12.132 0.322266 15.5093V41.7593C0.322266 45.1366 3.06998 47.8843 6.44727 47.8843H50.1973C53.5745 47.8843 56.3223 45.1366 56.3223 41.7593V15.5093C56.3223 12.132 53.5745 9.38428 50.1973 9.38428ZM6.44727 12.8843H50.1973C51.6446 12.8843 52.8223 14.0619 52.8223 15.5093V19.0093H3.82227V15.5093C3.82227 14.0619 4.99991 12.8843 6.44727 12.8843ZM50.1973 44.3843H6.44727C4.99991 44.3843 3.82227 43.2066 3.82227 41.7593V22.5093H52.8223V41.7593C52.8223 43.2066 51.6446 44.3843 50.1973 44.3843Z" fill="#FFB800"/>
<path id="Vector_2" d="M12.5723 39.1343H10.8223C9.85583 39.1343 9.07227 38.3507 9.07227 37.3843V35.6343C9.07227 34.6678 9.85583 33.8843 10.8223 33.8843H12.5723C13.5387 33.8843 14.3223 34.6678 14.3223 35.6343V37.3843C14.3223 38.3507 13.5387 39.1343 12.5723 39.1343Z" fill="#FFB800"/>
</g>
</g>
<defs>
<clipPath id="clip0_202_516">
<rect width="56" height="56" fill="white" transform="translate(0.322266 0.634277)"/>
</clipPath>
</defs>
</svg>
