<svg width="105" height="66" viewBox="0 0 105 66" fill="none" xmlns="http://www.w3.org/2000/svg">
<circle cx="4.0287" cy="4.0287" r="4.0287" transform="matrix(1 0 0 -1 0.267761 8.20654)" fill="#FFB800"/>
<circle cx="4.0287" cy="4.0287" r="4.0287" transform="matrix(1 0 0 -1 24.1946 8.20703)" fill="#FFB800"/>
<circle cx="4.0287" cy="4.0287" r="4.0287" transform="matrix(1 0 0 -1 48.1214 8.20703)" fill="#FFB800"/>
<circle cx="4.0287" cy="4.0287" r="4.0287" transform="matrix(1 0 0 -1 72.0483 8.20703)" fill="#FFB800"/>
<circle cx="4.0287" cy="4.0287" r="4.0287" transform="matrix(1 0 0 -1 95.9751 8.20703)" fill="#FFB800"/>
<circle cx="4.0287" cy="4.0287" r="4.0287" transform="matrix(1 0 0 -1 0.267761 46.5396)" fill="#FFB800"/>
<circle cx="4.0287" cy="4.0287" r="4.0287" transform="matrix(1 0 0 -1 24.1946 46.54)" fill="#FFB800"/>
<circle cx="4.0287" cy="4.0287" r="4.0287" transform="matrix(1 0 0 -1 48.1214 46.54)" fill="#FFB800"/>
<circle cx="4.0287" cy="4.0287" r="4.0287" transform="matrix(1 0 0 -1 72.0483 46.54)" fill="#FFB800"/>
<circle cx="4.0287" cy="4.0287" r="4.0287" transform="matrix(1 0 0 -1 95.9751 46.54)" fill="#FFB800"/>
<circle cx="4.0287" cy="4.0287" r="4.0287" transform="matrix(1 0 0 -1 0.267761 27.374)" fill="#FFB800"/>
<circle cx="4.0287" cy="4.0287" r="4.0287" transform="matrix(1 0 0 -1 24.1946 27.374)" fill="#FFB800"/>
<circle cx="4.0287" cy="4.0287" r="4.0287" transform="matrix(1 0 0 -1 48.1214 27.374)" fill="#FFB800"/>
<circle cx="4.0287" cy="4.0287" r="4.0287" transform="matrix(1 0 0 -1 72.0483 27.374)" fill="#FFB800"/>
<circle cx="4.0287" cy="4.0287" r="4.0287" transform="matrix(1 0 0 -1 95.9751 27.374)" fill="#FFB800"/>
<circle cx="4.0287" cy="4.0287" r="4.0287" transform="matrix(1 0 0 -1 0.267761 65.707)" fill="#FFB800"/>
<circle cx="4.0287" cy="4.0287" r="4.0287" transform="matrix(1 0 0 -1 24.1946 65.707)" fill="#FFB800"/>
<circle cx="4.0287" cy="4.0287" r="4.0287" transform="matrix(1 0 0 -1 48.1214 65.707)" fill="#FFB800"/>
<circle cx="4.0287" cy="4.0287" r="4.0287" transform="matrix(1 0 0 -1 72.0483 65.707)" fill="#FFB800"/>
<circle cx="4.0287" cy="4.0287" r="4.0287" transform="matrix(1 0 0 -1 95.9751 65.707)" fill="#FFB800"/>
</svg>
