<svg width="57" height="57" viewBox="0 0 57 57" fill="none" xmlns="http://www.w3.org/2000/svg">
<g id="Group 109">
<path id="Vector" d="M56.5416 28.8843C56.5416 13.409 44.0186 0.884277 28.5416 0.884277C13.0663 0.884277 0.541565 13.4073 0.541565 28.8843C0.541565 44.2224 12.9599 56.8843 28.5416 56.8843C44.0591 56.8843 56.5416 44.2929 56.5416 28.8843ZM28.5416 4.16553C42.1716 4.16553 53.2603 15.2543 53.2603 28.8843C53.2603 33.8702 51.7773 38.6627 49.0272 42.7219C37.9837 30.8428 19.1195 30.8214 8.05597 42.7219C5.30579 38.6627 3.82281 33.8702 3.82281 28.8843C3.82281 15.2543 14.9116 4.16553 28.5416 4.16553ZM10.1025 45.3452C19.9214 34.3317 37.1642 34.3342 46.9802 45.3452C37.1284 56.3673 19.9586 56.3707 10.1025 45.3452Z" fill="#FFB800"/>
<path id="Vector_2" d="M28.5416 30.5249C33.9693 30.5249 38.3853 26.1089 38.3853 20.6812V17.3999C38.3853 11.9722 33.9693 7.55615 28.5416 7.55615C23.1138 7.55615 18.6978 11.9722 18.6978 17.3999V20.6812C18.6978 26.1089 23.1138 30.5249 28.5416 30.5249ZM21.9791 17.3999C21.9791 13.7811 24.9228 10.8374 28.5416 10.8374C32.1603 10.8374 35.1041 13.7811 35.1041 17.3999V20.6812C35.1041 24.2999 32.1603 27.2437 28.5416 27.2437C24.9228 27.2437 21.9791 24.2999 21.9791 20.6812V17.3999Z" fill="#FFB800"/>
</g>
</svg>
