<svg width="221" height="47" viewBox="0 0 221 47" fill="none" xmlns="http://www.w3.org/2000/svg">
<g id="Group 60">
<g id="Group 59">
<path id="Vector" d="M85.5543 23.5344C85.5543 25.9281 83.6314 27.8684 81.2593 27.8684C78.8871 27.8684 76.9642 25.9281 76.9642 23.5344C76.9642 21.1408 78.8871 19.2004 81.2593 19.2004C83.6314 19.2004 85.5543 21.1408 85.5543 23.5344Z" fill="#F7B030"/>
<g id="Group 58">
<path id="Vector_2" d="M91.3039 15.8674C91.0975 15.3029 90.7681 14.7919 90.3401 14.3726C89.9244 13.9407 89.4183 13.6084 88.8585 13.4001C88.4045 13.2222 87.7224 13.0104 86.4661 12.9527C85.1072 12.8902 84.6997 12.8767 81.2593 12.8767C77.8185 12.8767 77.411 12.8898 76.0524 12.9524C74.7961 13.0104 74.1137 13.2222 73.66 13.4001C73.1002 13.6084 72.5938 13.9407 72.1785 14.3726C71.7505 14.7919 71.4211 15.3025 71.2143 15.8674C71.0379 16.3254 70.828 17.0139 70.7708 18.2814C70.7089 19.6522 70.6955 20.0633 70.6955 23.5348C70.6955 27.006 70.7089 27.4171 70.7708 28.7883C70.828 30.0557 71.0379 30.7439 71.2143 31.202C71.4211 31.7668 71.7501 32.2774 72.1781 32.6968C72.5938 33.1286 73.0999 33.4609 73.6597 33.6693C74.1137 33.8475 74.7961 34.0593 76.0524 34.117C77.411 34.1795 77.8181 34.1926 81.2589 34.1926C84.7 34.1926 85.1075 34.1795 86.4658 34.117C87.7221 34.0593 88.4045 33.8475 88.8585 33.6693C89.9823 33.2319 90.8704 32.3358 91.3039 31.202C91.4803 30.7439 91.6902 30.0557 91.7477 28.7883C91.8097 27.4171 91.8227 27.006 91.8227 23.5348C91.8227 20.0633 91.8097 19.6522 91.7477 18.2814C91.6905 17.0139 91.4806 16.3254 91.3039 15.8674ZM81.2593 30.2102C77.6048 30.2102 74.6424 27.2216 74.6424 23.5345C74.6424 19.8474 77.6048 16.8588 81.2593 16.8588C84.9134 16.8588 87.8758 19.8474 87.8758 23.5345C87.8758 27.2216 84.9134 30.2102 81.2593 30.2102ZM88.1374 18.155C87.2835 18.155 86.5911 17.4565 86.5911 16.5949C86.5911 15.7333 87.2835 15.0348 88.1374 15.0348C88.9914 15.0348 89.6837 15.7333 89.6837 16.5949C89.6833 17.4565 88.9914 18.155 88.1374 18.155Z" fill="#F7B030"/>
<path id="Vector_3" d="M81.2593 0.893311C68.8681 0.893311 58.8197 11.032 58.8197 23.5344C58.8197 36.0369 68.8681 46.1755 81.2593 46.1755C93.6504 46.1755 103.699 36.0369 103.699 23.5344C103.699 11.032 93.6504 0.893311 81.2593 0.893311ZM94.0668 28.8945C94.0044 30.2785 93.7863 31.2233 93.4679 32.0504C92.7985 33.7968 91.4303 35.1773 89.6994 35.8527C88.8801 36.174 87.9433 36.3937 86.572 36.457C85.1979 36.5202 84.759 36.5354 81.2596 36.5354C77.7599 36.5354 77.3213 36.5202 75.9469 36.457C74.5756 36.3937 73.6388 36.174 72.8195 35.8527C71.9593 35.5262 71.1807 35.0146 70.537 34.353C69.8817 33.7039 69.3746 32.9179 69.051 32.0504C68.7326 31.2237 68.5145 30.2785 68.4521 28.8948C68.3888 27.5081 68.3741 27.0652 68.3741 23.5344C68.3741 20.0037 68.3888 19.5608 68.4518 18.1744C68.5141 16.7904 68.7319 15.8455 69.0503 15.0184C69.3739 14.151 69.8813 13.365 70.537 12.7158C71.1804 12.0543 71.9593 11.5426 72.8191 11.2161C73.6388 10.8948 74.5753 10.6751 75.9469 10.6119C77.321 10.5487 77.7599 10.5335 81.2593 10.5335C84.7586 10.5335 85.1976 10.5487 86.5716 10.6122C87.9433 10.6751 88.8797 10.8948 89.6994 11.2158C90.5592 11.5423 91.3382 12.0543 91.9819 12.7158C92.6372 13.3653 93.1447 14.151 93.4679 15.0184C93.7867 15.8455 94.0044 16.7904 94.0671 18.1744C94.1298 19.5608 94.1445 20.0037 94.1445 23.5344C94.1445 27.0652 94.1298 27.5081 94.0668 28.8945Z" fill="#F7B030"/>
</g>
</g>
<g id="Group">
<path id="Vector_4" d="M217.447 12.1695C215.44 8.70086 212.718 5.95447 209.281 3.92986C205.843 1.90536 202.088 0.893311 198.017 0.893311C193.946 0.893311 190.191 1.90536 186.753 3.92986C183.315 5.95416 180.593 8.70055 178.586 12.1695C176.579 15.6387 175.576 19.4268 175.576 23.5347C175.576 28.1142 176.813 32.2716 179.287 36.005C181.761 39.7401 185.004 42.5013 189.017 44.2897C188.939 42.1868 189.065 40.4475 189.396 39.0718L192.289 26.748C191.802 25.7847 191.559 24.5868 191.559 23.1514C191.559 21.4812 191.977 20.0857 192.815 18.9651C193.653 17.8448 194.675 17.2847 195.883 17.2847C196.857 17.2847 197.606 17.6089 198.133 18.2574C198.659 18.9062 198.921 19.7217 198.921 20.7047C198.921 21.3135 198.809 22.0557 198.584 22.9303C198.361 23.805 198.069 24.8172 197.708 25.9671C197.348 27.1165 197.09 28.036 196.934 28.7233C196.661 29.9219 196.885 30.9488 197.606 31.8043C198.327 32.6591 199.281 33.0871 200.47 33.0871C202.554 33.0871 204.263 31.9178 205.598 29.5792C206.932 27.2398 207.599 24.3998 207.599 21.0588C207.599 18.4837 206.776 16.3905 205.13 14.7793C203.483 13.1675 201.19 12.3613 198.248 12.3613C194.957 12.3613 192.293 13.4277 190.257 15.5601C188.222 17.6928 187.204 20.2431 187.204 23.2107C187.204 24.9797 187.701 26.4638 188.694 27.6624C189.025 28.0554 189.132 28.4779 189.015 28.9303C188.976 29.0483 188.899 29.343 188.782 29.8144C188.665 30.2858 188.587 30.5911 188.548 30.7284C188.392 31.3573 188.022 31.5538 187.438 31.3178C185.938 30.6894 184.798 29.5983 184.019 28.0456C183.24 26.4929 182.85 24.6942 182.85 22.6507C182.85 21.3338 183.06 20.017 183.479 18.7004C183.897 17.3832 184.55 16.1109 185.436 14.8824C186.323 13.6536 187.384 12.5676 188.621 11.6246C189.858 10.6814 191.363 9.92479 193.135 9.3548C194.908 8.7848 196.817 8.49981 198.862 8.49981C201.629 8.49981 204.112 9.11885 206.313 10.357C208.514 11.5953 210.194 13.1969 211.353 15.1624C212.512 17.1281 213.091 19.2311 213.091 21.4717C213.091 24.4196 212.585 27.0728 211.573 29.4315C210.56 31.7899 209.128 33.6422 207.277 34.9882C205.426 36.3349 203.323 37.0081 200.965 37.0081C199.777 37.0081 198.667 36.7278 197.634 36.1681C196.602 35.6077 195.891 34.9447 195.502 34.1779C194.625 37.6562 194.099 39.7302 193.923 40.3983C193.553 41.7931 192.794 43.4051 191.644 45.2328C193.729 45.8617 195.852 46.1755 198.014 46.1755C202.085 46.1755 205.84 45.1635 209.278 43.1387C212.716 41.1146 215.438 38.3682 217.444 34.8995C219.45 31.4301 220.453 27.6417 220.453 23.5343C220.454 19.4268 219.453 15.6382 217.447 12.1695Z" fill="#F7B030"/>
</g>
<g id="Group_2">
<path id="Vector_5" d="M23.0302 0.893311C10.5854 0.893311 0.496651 11.0727 0.496651 23.6292C0.496651 34.891 8.62044 44.2176 19.2721 46.0237V28.3725H13.8363V22.0206H19.2721V17.337C19.2721 11.9026 22.5617 8.94115 27.3671 8.94115C29.6686 8.94115 31.6464 9.11419 32.2206 9.1904V14.8708L28.8877 14.8724C26.2749 14.8724 25.7712 16.1249 25.7712 17.9635V22.0174H32.0056L31.1924 28.3693H25.7712V46.1755C36.9201 44.8064 45.5635 35.2422 45.5635 23.6227C45.5635 11.0727 35.4747 0.893311 23.0302 0.893311Z" fill="#F7B030"/>
</g>
<path id="Vector_6" d="M139.638 0.731689C127.246 0.731689 117.198 10.943 117.198 23.5349C117.198 36.1269 127.246 46.3381 139.638 46.3381C152.029 46.3381 162.077 36.1269 162.077 23.5349C162.077 10.943 152.029 0.731689 139.638 0.731689ZM149.883 18.5112C149.893 18.7356 149.898 18.9611 149.898 19.1876C149.898 26.1038 144.717 34.0792 135.244 34.0795C132.335 34.0795 129.628 33.2131 127.349 31.7284C127.752 31.7768 128.162 31.8008 128.577 31.8008C130.991 31.8008 133.211 30.9643 134.974 29.5604C132.72 29.5179 130.819 28.0047 130.163 25.925C130.477 25.9862 130.8 26.0196 131.131 26.0196C131.601 26.0196 132.056 25.9552 132.489 25.8352C130.132 25.3557 128.357 23.2392 128.357 20.7047C128.357 20.681 128.357 20.6598 128.358 20.6379C129.052 21.03 129.845 21.2659 130.69 21.2924C129.307 20.3547 128.398 18.7516 128.398 16.9357C128.398 15.9768 128.653 15.0783 129.096 14.3049C131.636 17.4719 135.432 19.5547 139.712 19.7736C139.624 19.3901 139.578 18.9907 139.578 18.5801C139.578 15.6907 141.885 13.3466 144.729 13.3466C146.211 13.3466 147.549 13.983 148.489 15.0004C149.662 14.7652 150.764 14.3296 151.76 13.73C151.374 14.9517 150.558 15.9768 149.495 16.625C150.537 16.4983 151.53 16.2175 152.452 15.8007C151.763 16.8505 150.889 17.7725 149.883 18.5112Z" fill="#F7B030"/>
</g>
</svg>
