<svg width="57" height="57" viewBox="0 0 57 57" fill="none" xmlns="http://www.w3.org/2000/svg">
<g id="sinyal 1" clip-path="url(#clip0_202_470)">
<g id="Group">
<g id="Group_2">
<path id="Vector" d="M12.939 45.1739C7.00612 40.4465 3.60358 33.3874 3.60358 25.8068C3.60358 18.2265 7.0059 11.1676 12.9385 6.44014C13.6472 5.87544 13.7637 4.84316 13.199 4.13463C12.6345 3.42599 11.6022 3.30929 10.8935 3.87399C4.17539 9.22757 0.322327 17.2218 0.322327 25.8068C0.322327 34.3922 4.1755 42.3866 10.8941 47.74C11.6023 48.3045 12.6347 48.1883 13.1996 47.4794C13.7642 46.7708 13.6476 45.7386 12.939 45.1739Z" fill="#FFB800"/>
</g>
</g>
<g id="Group_3">
<g id="Group_4">
<path id="Vector_2" d="M45.7513 3.87419C45.0426 3.30959 44.0105 3.42619 43.4458 4.13483C42.8811 4.84347 42.9977 5.87564 43.7064 6.44034C49.6388 11.1679 53.0411 18.2267 53.0411 25.8069C53.0411 33.3873 49.6388 40.4461 43.7062 45.1735C42.9976 45.7382 42.881 46.7705 43.4457 47.479C44.0106 48.188 45.043 48.3039 45.7512 47.7397C52.4693 42.3861 56.3223 34.3919 56.3223 25.8069C56.3223 17.222 52.4693 9.22776 45.7513 3.87419Z" fill="#FFB800"/>
</g>
</g>
<g id="Group_5">
<g id="Group_6">
<path id="Vector_3" d="M18.4058 38.3257C14.5596 35.2663 12.3536 30.7033 12.3536 25.8068C12.3536 20.9102 14.5596 16.3472 18.4059 13.2878C19.115 12.7237 19.2327 11.6917 18.6686 10.9825C18.1044 10.2733 17.0723 10.1557 16.3633 10.7198C11.7298 14.4054 9.07233 19.9043 9.07233 25.8068C9.07233 31.7092 11.7298 37.2082 16.3632 40.8937C17.0728 41.458 18.1046 41.3398 18.6684 40.631C19.2325 39.9219 19.1149 38.8897 18.4058 38.3257Z" fill="#FFB800"/>
</g>
</g>
<g id="Group_7">
<g id="Group_8">
<path id="Vector_4" d="M40.2815 10.72C39.5723 10.156 38.5404 10.2735 37.9762 10.9827C37.4122 11.6917 37.5297 12.7239 38.2388 13.288C42.0851 16.3473 44.2911 20.9102 44.2911 25.8068C44.2911 30.7034 42.0851 35.2664 38.2387 38.3258C37.5296 38.8898 37.4119 39.9219 37.9761 40.6311C38.5405 41.3406 39.5727 41.4575 40.2814 40.8938C44.9148 37.2082 47.5723 31.7092 47.5723 25.8068C47.5723 19.9044 44.9148 14.4055 40.2815 10.72Z" fill="#FFB800"/>
</g>
</g>
<g id="Group_9">
<g id="Group_10">
<path id="Vector_5" d="M28.3223 17.6257C23.7991 17.6257 20.1192 21.3057 20.1192 25.8289C20.1192 29.7903 22.942 33.1047 26.6817 33.8669V52.1882C26.6817 53.0943 27.4163 53.8289 28.3223 53.8289C29.2284 53.8289 29.963 53.0943 29.963 52.1882V33.8669C33.7027 33.1048 36.5255 29.7904 36.5255 25.8289C36.5255 21.3057 32.8455 17.6257 28.3223 17.6257ZM28.3223 30.7507C25.6084 30.7507 23.4005 28.5428 23.4005 25.8289C23.4005 23.1149 25.6084 20.907 28.3223 20.907C31.0362 20.907 33.2442 23.1149 33.2442 25.8289C33.2442 28.5428 31.0362 30.7507 28.3223 30.7507Z" fill="#FFB800"/>
</g>
</g>
</g>
<defs>
<clipPath id="clip0_202_470">
<rect width="56" height="56" fill="white" transform="translate(0.322327 0.672607)"/>
</clipPath>
</defs>
</svg>
