<svg width="57" height="57" viewBox="0 0 57 57" fill="none" xmlns="http://www.w3.org/2000/svg">
<g id="timee 1" clip-path="url(#clip0_202_491)">
<g id="Group">
<g id="Group_2">
<path id="Vector" d="M32.233 18.9653L28.443 27.9601L34.4333 38.2632C35.0356 39.2991 34.6867 40.6253 33.6528 41.2301C32.6188 41.8349 31.2962 41.4864 30.6939 40.4504L24.159 29.2106C23.8159 28.6206 23.7692 27.9023 24.0355 27.2745L28.2466 17.2803C28.4361 16.8305 28.758 16.4791 29.1487 16.2505C29.7189 15.917 30.4291 15.8456 31.0831 16.1257C32.1843 16.5888 32.6989 17.8618 32.233 18.9653Z" fill="#FFB800"/>
</g>
</g>
<g id="Group_3">
<g id="Group_4">
<path id="Vector_2" d="M56.3224 28.6631C56.3224 44.1032 43.7625 56.6631 28.3224 56.6631C12.8822 56.6631 0.322387 44.1032 0.322386 28.6631C0.322386 13.2229 12.8822 0.663088 28.3224 0.663087C43.7625 0.663086 56.3224 13.2229 56.3224 28.6631ZM4.66009 28.6631C4.66009 41.7088 15.2767 52.3254 28.3224 52.3254C41.3681 52.3254 51.9847 41.7088 51.9847 28.6631C51.9847 15.6152 41.3681 5.00079 28.3224 5.00079C15.2767 5.00079 4.66009 15.6174 4.66009 28.6631Z" fill="#FFB800"/>
</g>
</g>
</g>
<defs>
<clipPath id="clip0_202_491">
<rect width="56" height="56" fill="white" transform="matrix(-4.37114e-08 -1 -1 4.37114e-08 56.3224 56.6631)"/>
</clipPath>
</defs>
</svg>
