<svg width="56" height="56" viewBox="0 0 56 56" fill="none" xmlns="http://www.w3.org/2000/svg">
<g id="toko 1" clip-path="url(#clip0_202_524)">
<path id="Vector" d="M51.1481 53.6614L47.7404 15.7123C47.6474 14.6759 46.7788 13.8821 45.7385 13.8821H38.7112V10.7127C38.7112 4.806 33.906 0.000488281 27.9995 0.000488281C22.0933 0.000488281 17.2886 4.806 17.2886 10.7127V13.8821H10.2566C9.21619 13.8821 8.3476 14.6759 8.2546 15.7123L4.83358 53.8107C4.78319 54.3729 4.97133 54.9301 5.35216 55.3466C5.73298 55.763 6.2714 56.0002 6.83554 56.0002H49.1598C49.1614 56.0002 49.1635 56.0002 49.1651 56.0002C50.2754 56.0002 51.1751 55.1003 51.1751 53.9902C51.1749 53.8785 51.1657 53.7683 51.1481 53.6614ZM21.3086 10.7127C21.3086 7.02263 24.3102 4.02049 27.9998 4.02049C31.6896 4.02049 34.6915 7.02263 34.6915 10.7127V13.8821H21.3086V10.7127ZM9.03421 51.9805L12.0942 17.9021H17.2886V21.4965C17.2886 22.6066 18.1883 23.5065 19.2986 23.5065C20.409 23.5065 21.3086 22.6066 21.3086 21.4965V17.9021H34.6915V21.4965C34.6915 22.6066 35.5912 23.5065 36.7015 23.5065C37.8118 23.5065 38.7115 22.6066 38.7115 21.4965V17.9021H43.9011L46.9611 51.9805H9.03421Z" fill="#FFB800"/>
</g>
<defs>
<clipPath id="clip0_202_524">
<rect width="56" height="56" fill="white" transform="translate(0.000244141 0.000488281)"/>
</clipPath>
</defs>
</svg>
