<svg width="57" height="57" viewBox="0 0 57 57" fill="none" xmlns="http://www.w3.org/2000/svg">
<g id="uang koin 1" clip-path="url(#clip0_202_504)">
<g id="Group">
<g id="Group_2">
<path id="Vector" d="M8.52327 8.70191C13.8118 3.41341 20.8433 0.500977 28.3223 0.500977C35.8014 0.500977 42.8329 3.41341 48.1214 8.70191C53.4098 13.9904 56.3223 21.0219 56.3223 28.501C56.3223 35.98 53.4098 43.0115 48.1214 48.3C42.8329 53.5885 35.8014 56.501 28.3223 56.501C20.8433 56.501 13.8118 53.5885 8.52327 48.3C3.23487 43.0115 0.322327 35.98 0.322327 28.501C0.322327 21.0219 3.23487 13.9904 8.52327 8.70191ZM28.3223 53.2197C41.9523 53.2197 53.0411 42.131 53.0411 28.501C53.0411 14.871 41.9523 3.78223 28.3223 3.78223C14.6923 3.78223 3.60358 14.871 3.60358 28.501C3.60358 42.131 14.6923 53.2197 28.3223 53.2197Z" fill="#FFB800"/>
</g>
</g>
<g id="Group_3">
<g id="Group_4">
<path id="Vector_2" d="M26.565 26.8604H30.0797C32.082 26.8604 33.7109 25.2315 33.7109 23.2293C33.7109 21.227 32.0819 19.598 30.0797 19.598H23.0505C22.1444 19.598 21.4098 18.8635 21.4098 17.9574C21.4098 17.0514 22.1444 16.3168 23.0505 16.3168H26.6817V12.6855C26.6817 11.7795 27.4163 11.0449 28.3223 11.0449C29.2284 11.0449 29.963 11.7795 29.963 12.6855V16.3168H30.0796C33.8912 16.3168 36.9921 19.4178 36.9921 23.2293C36.9921 27.0408 33.8911 30.1417 30.0796 30.1417H26.5649C24.5627 30.1417 22.9338 31.7707 22.9338 33.7729C22.9338 35.7752 24.5627 37.4042 26.5649 37.4042H33.5941C34.5002 37.4042 35.2347 38.1387 35.2347 39.0448C35.2347 39.9509 34.5002 40.6854 33.5941 40.6854H29.963V44.3168C29.963 45.2229 29.2284 45.9574 28.3223 45.9574C27.4163 45.9574 26.6817 45.2229 26.6817 44.3168V40.6854H26.565C22.7535 40.6854 19.6526 37.5844 19.6526 33.7729C19.6526 29.9614 22.7535 26.8604 26.565 26.8604Z" fill="#FFB800"/>
</g>
</g>
</g>
<defs>
<clipPath id="clip0_202_504">
<rect width="56" height="56" fill="white" transform="matrix(-1 0 0 1 56.3223 0.500977)"/>
</clipPath>
</defs>
</svg>
