<svg width="23" height="29" viewBox="0 0 23 29" fill="none" xmlns="http://www.w3.org/2000/svg">
<path d="M22.4087 27.5704L20.7603 8.5218C20.7153 8.0016 20.2951 7.60315 19.7918 7.60315H16.3924V6.01228C16.3924 3.04739 14.0678 0.635254 11.2105 0.635254C8.35338 0.635254 6.02908 3.04739 6.02908 6.01228V7.60315H2.62728C2.124 7.60315 1.70381 8.0016 1.65882 8.5218L0.00388795 27.6453C-0.0204856 27.9276 0.0705261 28.2072 0.254754 28.4163C0.438981 28.6253 0.699441 28.7444 0.972347 28.7444H21.4469C21.4477 28.7444 21.4487 28.7444 21.4495 28.7444C21.9866 28.7444 22.4218 28.2927 22.4218 27.7355C22.4217 27.6794 22.4173 27.6241 22.4087 27.5704ZM7.97377 6.01228C7.97377 4.16003 9.42581 2.6531 11.2107 2.6531C12.9956 2.6531 14.4478 4.16003 14.4478 6.01228V7.60315H7.97377V6.01228ZM2.03597 26.7267L3.51627 9.62099H6.02908V11.4252C6.02908 11.9824 6.4643 12.4341 7.00142 12.4341C7.53855 12.4341 7.97377 11.9824 7.97377 11.4252V9.62099H14.4478V11.4252C14.4478 11.9824 14.883 12.4341 15.4201 12.4341C15.9573 12.4341 16.3925 11.9824 16.3925 11.4252V9.62099H18.903L20.3833 26.7267H2.03597Z" fill="#FFB800"/>
</svg>
